<?xml version="1.0" encoding="utf-8"?>
<!-- Generator: Adobe Illustrator 27.6.1, SVG Export Plug-In . SVG Version: 6.00 Build 0)  -->
<svg version="1.1" id="Stanford_School_of_Medicine"
	 xmlns="http://www.w3.org/2000/svg" xmlns:xlink="http://www.w3.org/1999/xlink" x="0px" y="0px" viewBox="0 0 177.8 105.8"
	 style="enable-background:new 0 0 177.8 105.8;" xml:space="preserve">
<style type="text/css">
	.st0{fill:#53565A;}
	.st1{fill:#C7C7C7;}
	.st2{fill:#8C1515;}
	.st3{fill:#FFFFFF;}
</style>
<g>
	<g id="b">
		<path class="st0" d="M20.9,81.3c0.8,0.8,2,1.3,3,1.3c1.3,0,2-0.6,2-1.5c0-1-0.8-1.3-1.8-1.7l-1.6-0.7c-1.1-0.5-2.3-1.4-2.3-3.1
			c0-1.8,1.6-3.3,3.9-3.3c1.4,0,2.7,0.6,3.6,1.5l-1.1,1.3c-0.8-0.6-1.5-1-2.5-1c-1.1,0-1.8,0.5-1.8,1.4c0,0.9,0.9,1.2,1.8,1.6
			l1.6,0.7C27,78.5,28,79.3,28,81c0,1.9-1.6,3.4-4.2,3.4c-1.6,0-3.1-0.6-4.2-1.7L20.9,81.3L20.9,81.3z"/>
		<path class="st0" d="M33.5,75.3c1.1,0,2,0.4,2.6,1l-1,1.3c-0.5-0.4-0.9-0.6-1.5-0.6c-1.4,0-2.4,1.2-2.4,2.9c0,1.7,1,2.9,2.3,2.9
			c0.7,0,1.3-0.4,1.8-0.8l0.8,1.3c-0.8,0.7-1.9,1.1-2.9,1.1c-2.4,0-4.2-1.7-4.2-4.6C29.2,77,31.2,75.3,33.5,75.3L33.5,75.3z"/>
		<path class="st0" d="M37.5,71.7h2v3.2l-0.1,1.7c0.7-0.7,1.6-1.3,2.8-1.3c1.9,0,2.7,1.3,2.7,3.5v5.5h-2v-5.2c0-1.4-0.4-2-1.4-2
			c-0.8,0-1.3,0.4-2,1.1v6.1h-2V71.7L37.5,71.7z"/>
		<path class="st0" d="M50.7,75.3c2.2,0,4.2,1.7,4.2,4.6c0,2.9-2,4.6-4.2,4.6c-2.2,0-4.1-1.7-4.1-4.6C46.6,77,48.5,75.3,50.7,75.3z
			 M50.7,82.8c1.3,0,2.1-1.2,2.1-2.9c0-1.8-0.8-2.9-2.1-2.9c-1.3,0-2,1.2-2,2.9C48.7,81.6,49.4,82.8,50.7,82.8z"/>
		<path class="st0" d="M60.1,75.3c2.2,0,4.2,1.7,4.2,4.6c0,2.9-2,4.6-4.2,4.6c-2.2,0-4.1-1.7-4.1-4.6C56,77,58,75.3,60.1,75.3z
			 M60.1,82.8c1.3,0,2.1-1.2,2.1-2.9c0-1.8-0.8-2.9-2.1-2.9s-2,1.2-2,2.9C58.1,81.6,58.9,82.8,60.1,82.8z"/>
		<path class="st0" d="M66,71.7h2v10.4c0,0.5,0.2,0.7,0.4,0.7c0.1,0,0.2,0,0.3,0l0.3,1.5c-0.2,0.1-0.6,0.2-1.1,0.2
			c-1.5,0-2-0.9-2-2.4V71.7L66,71.7z"/>
		<path class="st0" d="M77,75.3c2.2,0,4.2,1.7,4.2,4.6c0,2.9-2,4.6-4.2,4.6c-2.2,0-4.1-1.7-4.1-4.6C72.9,77,74.8,75.3,77,75.3z
			 M77,82.8c1.3,0,2.1-1.2,2.1-2.9c0-1.8-0.8-2.9-2.1-2.9s-2,1.2-2,2.9C75,81.6,75.7,82.8,77,82.8z"/>
		<path class="st0" d="M87.2,73.3c-0.3-0.1-0.7-0.2-1-0.2c-0.7,0-1.1,0.5-1.1,1.5v0.9h1.7v1.6h-1.7v7.1h-2v-7.1h-1.2v-1.5l1.2-0.1
			v-0.9c0-1.8,0.8-3.1,2.9-3.1c0.6,0,1.2,0.1,1.6,0.3L87.2,73.3L87.2,73.3z"/>
		<path class="st0" d="M91.8,72.6h2.3l2.1,5.7l0.8,2.2H97l0.8-2.2l2.1-5.7h2.3v11.6h-1.9v-5.3c0-1.1,0.2-2.6,0.3-3.7h-0.1l-0.9,2.6
			l-2,5.3h-1l-2-5.3l-0.9-2.6h-0.1c0.1,1.1,0.3,2.6,0.3,3.7v5.3h-1.9L91.8,72.6L91.8,72.6z"/>
		<path class="st0" d="M108,75.3c2.4,0,3.6,1.7,3.6,4.1c0,0.4,0,0.8-0.1,1H106c0.2,1.6,1.2,2.5,2.6,2.5c0.8,0,1.4-0.2,2-0.6l0.7,1.3
			c-0.8,0.6-1.9,0.9-3,0.9c-2.4,0-4.3-1.7-4.3-4.6C104,77.1,106,75.3,108,75.3L108,75.3z M109.8,79.1c0-1.4-0.6-2.2-1.8-2.2
			c-1,0-1.9,0.8-2.1,2.2H109.8L109.8,79.1z"/>
		<path class="st0" d="M116.7,75.3c1,0,1.6,0.4,2.3,1l-0.1-1.4v-3.2h2v12.5h-1.7l-0.1-0.9h-0.1c-0.6,0.6-1.5,1.2-2.5,1.2
			c-2.2,0-3.6-1.7-3.6-4.6C113,77.1,114.8,75.3,116.7,75.3L116.7,75.3z M117.1,82.8c0.7,0,1.2-0.3,1.8-1v-4.1
			c-0.6-0.5-1.2-0.7-1.8-0.7c-1.1,0-2,1.1-2,2.9C115.1,81.8,115.8,82.8,117.1,82.8L117.1,82.8z"/>
		<path class="st0" d="M122.9,72.8c0-0.7,0.5-1.2,1.3-1.2s1.3,0.5,1.3,1.2c0,0.7-0.5,1.2-1.3,1.2S122.9,73.5,122.9,72.8z
			 M123.2,75.5h2v8.7h-2V75.5z"/>
		<path class="st0" d="M131.3,75.3c1.1,0,2,0.4,2.6,1l-1,1.3c-0.5-0.4-0.9-0.6-1.5-0.6c-1.4,0-2.4,1.2-2.4,2.9c0,1.7,1,2.9,2.3,2.9
			c0.7,0,1.3-0.4,1.8-0.8l0.9,1.3c-0.8,0.7-1.9,1.1-2.9,1.1c-2.4,0-4.2-1.7-4.2-4.6C126.9,77,128.9,75.3,131.3,75.3L131.3,75.3z"/>
		<path class="st0" d="M135,72.8c0-0.7,0.5-1.2,1.3-1.2s1.3,0.5,1.3,1.2c0,0.7-0.5,1.2-1.3,1.2S135,73.5,135,72.8z M135.2,75.5h2
			v8.7h-2V75.5z"/>
		<path class="st0" d="M139.5,75.5h1.7l0.1,1.2h0.1c0.8-0.8,1.7-1.4,2.9-1.4c1.9,0,2.7,1.3,2.7,3.5v5.5h-2v-5.2c0-1.4-0.4-2-1.4-2
			c-0.8,0-1.3,0.4-2,1.1v6.1h-2L139.5,75.5L139.5,75.5z"/>
		<path class="st0" d="M152.5,75.3c2.4,0,3.6,1.7,3.6,4.1c0,0.4,0,0.8-0.1,1h-5.5c0.2,1.6,1.2,2.5,2.6,2.5c0.8,0,1.4-0.2,2-0.6
			l0.7,1.3c-0.8,0.6-1.9,0.9-3,0.9c-2.4,0-4.3-1.7-4.3-4.6C148.5,77.1,150.5,75.3,152.5,75.3L152.5,75.3z M154.4,79.1
			c0-1.4-0.6-2.2-1.8-2.2c-1,0-1.9,0.8-2.1,2.2H154.4L154.4,79.1z"/>
	</g>
	<rect x="58.2" y="63" class="st1" width="97.9" height="1.6"/>
	<g>
		<g>
			<path class="st0" d="M149.5,44.2h6.5v1.6h-4.6v2.7h3.9v1.6h-3.9v3.2h4.7V55h-6.6L149.5,44.2L149.5,44.2z"/>
			<path class="st0" d="M134.4,44.2h1.9l3.4,6l1.1,2.3h0.1c-0.1-1.1-0.2-2.5-0.2-3.7v-4.7h1.8V55h-1.9l-3.4-6l-1.1-2.3H136
				c0.1,1.1,0.2,2.4,0.2,3.6V55h-1.8V44.2L134.4,44.2z"/>
			<path class="st0" d="M125.4,44.2h1.9V55h-1.9V44.2z"/>
			<path class="st0" d="M116,44c1.3,0,2.4,0.6,3.1,1.4l-1.1,1.2c-0.5-0.5-1.2-0.9-2-0.9c-1.8,0-3,1.5-3,3.9c0,2.4,1.2,3.9,2.9,3.9
				c0.9,0,1.6-0.4,2.2-1.1l1.1,1.2c-0.9,1-2,1.6-3.3,1.6c-2.7,0-4.9-2-4.9-5.5C111,46.1,113.2,44,116,44z"/>
			<path class="st0" d="M102.6,44.2h1.9V55h-1.9V44.2z"/>
			<path class="st0" d="M88,44.2h2.9c3.3,0,5.2,1.8,5.2,5.3c0,3.6-1.9,5.4-5.1,5.4h-3V44.2L88,44.2z M90.7,53.4
				c2.2,0,3.4-1.2,3.4-3.9c0-2.6-1.2-3.8-3.4-3.8h-0.8v7.7L90.7,53.4L90.7,53.4z"/>
			<path class="st0" d="M74.8,44.2h6.5v1.6h-4.6v2.7h3.9v1.6h-3.9v3.2h4.7V55h-6.6L74.8,44.2L74.8,44.2z"/>
			<path class="st0" d="M58.2,44.2h2.1l1.9,5.3l0.7,2H63l0.7-2l1.9-5.3h2.1V55h-1.8V50c0-1,0.2-2.4,0.2-3.4h-0.1l-0.9,2.5L63.4,54
				h-0.9l-1.8-4.9l-0.8-2.5h-0.1c0.1,1,0.2,2.4,0.2,3.4V55h-1.8L58.2,44.2L58.2,44.2z"/>
		</g>
		<g>
			<path class="st2" d="M62.7,38.7c-1.7,0-3-0.2-4.2-0.6L58.2,38v-0.9c0-1.2,0-1.7,0-2.1l0-0.7h0.8l0,0.3c0,0.6,0.2,1.2,0.6,1.5
				c0.5,0.6,1.8,1,3,1c2.5,0,3.6-0.9,3.6-2.9c0-1.7-1.1-2.4-2.5-3.4l-0.2-0.2l-1.5-1c-2.1-1.4-3.2-2.6-3.2-4.8
				c0-1.1,0.4-4.7,5.8-4.7c2.2,0,3.9,0.3,4,0.3l0.2,0l0,0.2c0,0,0,0.7,0,1.5c0,0.6,0,1.1,0,1.7l0,0.4h-0.7l0-0.2
				c-0.1-0.7-0.2-1.2-0.6-1.6c-0.5-0.5-1.7-0.8-2.9-0.8c-2.9,0-3.2,1.5-3.2,2.6c0,1.5,0.8,2,2.5,3.2l1.9,1.3
				c1.7,1.1,3.2,2.2,3.2,4.9C68.9,38.2,64.5,38.7,62.7,38.7L62.7,38.7z"/>
			<path class="st2" d="M75.4,38.8c-2,0-3.1-0.7-3.6-2.3c-0.2-0.6-0.2-1.9-0.2-2.6c0-2.1,0-3.7,0-5.6l0-0.9H70v-0.5l0.2-0.1
				c0.8-0.3,1.1-0.5,1.4-0.8c1.2-1,2.1-2.6,2.1-2.6l0.3-0.5h0.6v2.9H79v1.6h-4.4v6.8c0,2,0.4,3.2,2.3,3.2c0.9,0,1.6-0.3,1.6-0.3
				l0.3-0.1l0.2,0.5l-0.1,0.1C78.8,37.5,77.8,38.8,75.4,38.8L75.4,38.8z"/>
			<path class="st2" d="M84,38.7c-3.5,0-3.8-2.7-3.8-3.5c0-1,0.3-2.7,2.5-3.5c2.3-0.8,2.8-0.9,4.4-1.4v-0.4c0-0.8,0-1-0.2-1.4
				c-0.3-0.9-1.2-1.5-2.4-1.5c-1.7,0-2.5,1.3-2.5,1.3L82,28.6l-0.7-0.4l0.1-0.2c0.3-1,1.6-2.7,4.3-2.7c1.8,0,3,0.5,3.7,1.6
				C90,27.8,90,29,90,30.3c0,1.1,0,2.4-0.1,3.3c0,0.7,0,1.3,0,1.6c0,0.9,0.1,1.6,0.9,1.6c0.2,0,0.3,0,0.4-0.1l0.2-0.2l0.4,0.5
				l-0.1,0.2c-0.7,0.8-1.4,1.4-2.6,1.4c-1,0-1.7-0.5-2-1.3C86.7,38,85.6,38.7,84,38.7z M87.1,31.9c-1.7,0.5-2.3,0.8-2.8,1.1
				c-0.7,0.4-1.1,1.1-1.1,2c0,0.7,0.2,1.9,1.9,1.9c0.6,0,1.3-0.1,2-0.6C87.1,36.3,87.1,31.9,87.1,31.9z"/>
			<path class="st2" d="M93,38.6V38l0.2,0c0.2,0,0.8-0.1,1.1-0.5c0.4-0.4,0.4-1.5,0.4-3.7V30c0-1.6,0-2.3-0.2-2.6
				C94.3,27,93.7,27,93.4,27c0,0-0.1,0-0.1,0l-0.2,0v-0.7l0.3,0c0.1,0,0.1,0,0.2,0c0.4,0,1.3,0,2.3-0.2c0.8-0.1,1.2-0.4,1.4-0.5
				l0.2-0.1l0.2,0.1v1c0.7-0.5,2-1.2,3.7-1.2c2.3,0,3.8,1.1,4.3,3.1c0.1,0.5,0.2,1.7,0.2,2.3v3.8c0,2.1,0.1,2.7,0.5,3.1
				c0.2,0.2,0.6,0.3,1,0.4l0.2,0v0.6l-0.6,0c-0.9,0-1.7-0.1-2.6-0.1c-0.9,0-1.8,0-2.9,0.1l-0.3,0V38l0.2,0c0.5-0.1,0.8-0.2,1.1-0.4
				c0.4-0.4,0.4-1.4,0.5-2.3c0-0.1,0-0.3,0-0.5c0-0.5,0-1.5,0-2.2c0-1,0-2-0.1-3c-0.2-1.7-1.1-2.4-2.7-2.4c-1.2,0-1.9,0.3-2.4,0.5
				v6.8c0,2.1,0.1,2.7,0.5,3.1c0.2,0.2,0.6,0.3,1,0.4l0.2,0v0.6l-0.7,0c-0.9,0-1.7-0.1-2.5-0.1c-0.9,0-1.8,0-3,0.1L93,38.6L93,38.6z
				"/>
			<path class="st2" d="M109.1,38.6V38l0.2,0c0.2,0,0.8-0.1,1.1-0.5c0.4-0.4,0.4-1.5,0.4-3.7v-6.4h-1.7v-0.7l0.2-0.1
				c0.7-0.3,1.2-0.5,1.5-0.8c0-1.1,0-2.6,0.2-3.4c0.5-2.7,2.2-4,5.2-4c1.2,0,2.4,0.4,3.2,1l0.1,0.1l0,0.3l-1.3,1.8h-0.3l-0.1-0.2
				c-0.5-1.1-1.2-1.5-2.2-1.5c-0.4,0-1,0.1-1.3,0.5c-0.6,0.6-0.7,1.4-0.7,3v2.5h2.9v1.6h-2.9v7.2c0,1.7,0.1,2.5,0.3,2.9
				c0.4,0.5,1.5,0.6,1.8,0.6h0.3v0.7l-0.3,0c-1.4-0.1-2.5-0.1-3.2-0.1c-1,0-2,0-3.2,0.1L109.1,38.6L109.1,38.6z"/>
			<path class="st2" d="M123.9,38.8c-3.9,0-6.3-2.5-6.3-6.5c0-3.2,1.7-6.9,6.6-6.9c3.9,0,6.3,2.5,6.3,6.5
				C130.4,35.1,128.7,38.8,123.9,38.8z M124,26.9c-0.8,0-1.4,0.2-1.8,0.6c-1,0.9-1.6,2.5-1.6,4.7c0,0.9,0.2,5.2,3.3,5.2
				c0.8,0,1.4-0.2,1.8-0.6c1-0.9,1.6-2.5,1.6-4.7C127.4,31.2,127.2,26.9,124,26.9L124,26.9z"/>
			<path class="st2" d="M131.7,38.6V38l0.2,0c0.2,0,0.8-0.1,1.1-0.5c0.4-0.4,0.4-1.5,0.4-3.7V30c0-1.6,0-2.3-0.2-2.6
				c-0.3-0.4-0.8-0.4-1.2-0.4c0,0-0.1,0-0.1,0l-0.2,0v-0.8l0.3,0c0.1,0,0.1,0,0.2,0c0.4,0,1.3,0,2.3-0.2c0.6-0.1,1.2-0.3,1.4-0.4
				l0.1-0.1l0.2,0.1v1.1c0.6-0.6,1.6-1.2,3-1.2c0.9,0,1.6,0.2,2.2,0.7l0.1,0.1v0.4l-1.1,2h-0.5l-0.1-0.1c-0.3-0.5-0.9-1-2.1-1
				c-0.5,0-1,0.1-1.4,0.4v6.5c0,1.7,0.1,2.5,0.3,2.8c0.4,0.5,1.4,0.6,1.8,0.6h0.3v0.7l-0.3,0c-1.4-0.1-2.5-0.1-3.2-0.1
				c-1,0-2,0-3.2,0.1L131.7,38.6L131.7,38.6z"/>
			<path class="st2" d="M151.9,38.8l-0.3-0.1v-1.1c-0.6,0.5-1.9,1.2-3.6,1.2c-3.5,0-5.8-2.5-5.8-6.2c0-1.3,0.2-2.5,0.7-3.5
				c1.1-2.3,3.3-3.7,6.1-3.7c1,0,2,0.1,2.5,0.2v-2.8c0-1.6,0-2.5-0.2-2.8c-0.3-0.4-0.8-0.4-1.1-0.4c0,0-0.1,0-0.1,0l-0.2,0l0.1-0.6
				h0.3c0.1,0,1.6-0.1,2.8-0.4c0.5-0.1,1-0.2,1.3-0.3l0.1,0l0.2,0.1l0,0.1c-0.1,1.1-0.1,3.3-0.1,5v10.5c0,1.6,0,2.5,0.2,2.8
				c0.3,0.4,0.8,0.5,1.1,0.5c0,0,0.1,0,0.1,0l0.2,0v0.7h-0.3c-0.3,0-1.4,0.1-2.5,0.3c-0.6,0.1-1.1,0.2-1.3,0.3L151.9,38.8
				L151.9,38.8z M149,26.9c-2.5,0-3.7,1.7-3.7,5.3c0,1.4,0.4,4.8,4.1,4.8h0.1c0.4,0,1.3-0.1,2-0.5v-8.6
				C151.3,27.6,150.6,26.9,149,26.9L149,26.9z"/>
		</g>
		<g>
			<path class="st2" d="M48.1,20H20.3c-0.7,1.6-2.2,8-1.1,15.3c0,0.2,0.1,0.4,0.1,0.6c1.3,7,5.1,14.7,14.6,20
				c0.1,0.1,0.2,0.1,0.3,0.2c0.1-0.1,0.2-0.1,0.3-0.2C54.2,44.8,49.4,23.2,48.1,20z"/>
			<path class="st3" d="M33.9,20v15.3H19.2c0,0.2,0.1,0.4,0.1,0.6h14.6v20c0.1,0.1,0.2,0.1,0.3,0.2c0.1-0.1,0.2-0.1,0.3-0.2V20H33.9
				z"/>
			<path class="st3" d="M26.6,22.9l0,0.4c0.3-0.2,0.7-0.4,1-0.5c-0.2,0.8-0.6,1-1,1.1l0,0.7c0.4-0.3,0.9-0.7,1.3-0.8
				c-0.2,1-0.7,1.4-1.3,1.5V26c0.5-0.3,1.1-0.8,1.7-0.9c-0.3,1.1-1,1.5-1.7,1.5v0.6c0.5-0.3,1.1-0.7,1.7-0.8c-0.3,1-1,1.6-1.7,1.7
				v0.5c0.5-0.3,1.1-0.7,1.7-0.8c-0.3,1.1-1,1.6-1.7,1.7v0.4c0.5-0.3,1.4-0.9,2-1c-0.4,1.1-1.2,1.8-2,1.9v0.5
				c0.3-0.2,0.9-0.5,1.2-0.5c-0.2,0.8-0.8,1.1-1.2,1.2v0.9c0.1,0,0.2,0,0.3,0c0-0.3,0.2-0.7,0.6-0.9c0,0.2-0.1,0.6-0.2,0.8
				c0.2,0,0.5-0.1,0.7-0.2c-0.1-0.5,0-1.1,0.6-1.7c0.1,0.4,0,1,0,1.3c0.2-0.1,0.5-0.3,0.7-0.5c-0.3-0.5-0.2-1.1,0.3-1.8
				c0.1,0.3,0.2,1,0.2,1.4c0.2-0.2,0.4-0.5,0.6-0.7c-0.4-0.4-0.4-0.9,0.1-1.7c0.1,0.3,0.3,0.9,0.3,1.2c0.2-0.2,0.3-0.4,0.5-0.7
				c-0.1-0.2,0-0.4,0.1-0.5c0.2-0.2,0.4-0.4,0.6-0.2c0.3,0.1,0.1,0.5,0,0.7c-0.1,0.2-0.2,0.3-0.4,0.3c-0.1,0.3-0.4,0.6-0.5,0.8
				c0.4,0.1,0.7,0.2,1,0.5c-0.6,0.3-1,0.2-1.3-0.1c-0.2,0.3-0.5,0.6-0.7,0.8c0.4,0.1,0.7,0.2,1,0.6c-0.7,0.3-1.2,0.2-1.5-0.1
				c-0.2,0.2-0.5,0.4-0.7,0.6c0.4,0.2,0.7,0.4,1,0.8c-0.8,0.2-1.3,0-1.5-0.5c-0.2,0.1-0.5,0.2-0.7,0.2c0.2,0.2,0.4,0.3,0.5,0.6
				c-0.5,0-0.8-0.1-0.9-0.5c-0.1,0-0.2,0.1-0.3,0.1v1l-0.7-0.3v-0.8c-0.1,0-0.2-0.1-0.3-0.1c-0.1,0.3-0.3,0.4-0.9,0.4
				c0.1-0.2,0.2-0.4,0.4-0.6c-0.2-0.1-0.5-0.2-0.7-0.3c-0.2,0.5-0.7,0.7-1.5,0.5c0.2-0.3,0.5-0.6,1-0.8c-0.2-0.1-0.4-0.3-0.6-0.5
				c-0.3,0.3-0.8,0.5-1.5,0.2c0.3-0.3,0.6-0.5,1-0.6c-0.2-0.2-0.4-0.5-0.6-0.8c-0.3,0.3-0.8,0.4-1.4,0.1c0.3-0.3,0.6-0.6,1-0.6
				c-0.1-0.2-0.2-0.4-0.4-0.6c-0.1,0-0.2,0-0.4-0.2c-0.1-0.2-0.3-0.6,0-0.8c0.2-0.1,0.5,0.1,0.6,0.3c0.1,0.2,0.1,0.3,0,0.5
				c0.1,0.2,0.3,0.4,0.4,0.6c-0.1-0.6,0.1-1.1,0.2-1.4c0.5,0.7,0.4,1.3,0.1,1.8c0.2,0.3,0.4,0.5,0.6,0.7c-0.1-0.4,0-1,0.1-1.4
				c0.5,0.7,0.5,1.4,0.3,1.8c0.2,0.2,0.4,0.3,0.6,0.5C24,32,24,31.4,24.1,31c0.5,0.5,0.7,1.2,0.6,1.7c0.2,0.1,0.5,0.2,0.7,0.2
				c-0.1-0.2-0.2-0.6-0.2-0.9c0.4,0.3,0.5,0.6,0.5,0.9c0.1,0,0.2,0.1,0.3,0.1l0-0.9c-0.4-0.1-1-0.3-1.2-1.1c0.4,0.1,0.9,0.2,1.2,0.5
				V31c-0.8-0.1-1.6-0.6-2-1.8c0.7,0.1,1.4,0.5,2,0.9v-0.4c-0.7,0-1.4-0.7-1.7-1.6c0.6,0.1,1.1,0.4,1.7,0.8v-0.5
				c-0.7-0.1-1.4-0.6-1.7-1.7c0.6,0.1,1.1,0.4,1.7,0.8v-0.6c-0.7,0-1.3-0.4-1.7-1.5c0.6,0.1,1.1,0.4,1.7,0.8v-0.7
				c-0.5-0.1-1-0.4-1.3-1.5c0.5,0.1,0.9,0.3,1.3,0.7v-0.7c-0.4-0.1-0.8-0.2-1-1.1c0.3,0.1,0.6,0.1,1,0.4l0-0.4
				c-0.3-0.5-0.2-0.7-0.2-1c0-0.3,0.2-0.6,0.5-0.6c0.4,0,0.5,0.3,0.5,0.6C26.8,22.2,26.9,22.4,26.6,22.9"/>
			<g>
				<path class="st3" d="M42,31.5c0.2-2.6,0.6-3.4,1.2-3.9l0.1-0.1l-0.3-1.8l-0.2,0c-0.3,0-0.6,0.3-0.8,0.5V25l-2-1.2v1
					c-0.2-0.1-0.3-0.2-0.3-0.3c-0.2-0.1-0.4-0.2-0.5-0.2c-0.1,0-0.2,0-0.3,0c-0.1,0-0.2,0.1-0.4,0c-0.9-0.2-1.6,0-2,0.6
					c-0.4,0.5-0.4,1.3-0.2,2c0.2,0.5,0.5,1,0.9,1.6c0.2,0.2,1.7,1.9,2.1,2.2c0.2,0.2,0.5,0.5,0.7,0.7v0.6l-0.4-0.3L39.3,33l0.2,0.1
					c0.4,0.2,0.7,0.8,1,4.1c-0.9,0.4-2.2,1.5-2.2,2.7c0,0.5,0.2,1.3,1.6,1.8c0.3,0.1,0.5,0.2,0.8,0.3c0,0.6,0,1.3,0,2
					c-0.3,0.1-0.7,0.4-0.8,0.8c-0.1,0.4,0.1,0.7,0.7,1c0.1,0,0.1,0.1,0.2,0.1c0,0.2,0,0.4,0,0.6c-0.2,0.1-0.3,0.2-0.5,0.4
					c-0.1,0.1-0.2,0.2-0.1,0.3c0,0,0,0.1,0.2,0.1c0.1,0,0.2,0,0.4-0.1c0,0,0.1,0,0.1,0c0.1,0.2,0.3,0.4,0.5,0.4
					c0.3,0,0.5-0.2,0.5-0.4l0,0v0c0-0.1,0-0.2,0-0.3c0.2-0.1,0.3-0.3,0.3-0.5c0-0.3-0.1-0.5-0.3-0.7c0-0.3,0-0.6,0-0.9
					c0.9-0.2,1.8-0.8,1.8-1.5c0-0.5-0.2-1.2-1.7-1.8c-0.1,0-0.1,0-0.2-0.1c0-1.2,0-2.4,0-3.4c1.5-0.8,2.6-1.5,2.7-2.5
					C44.7,34.5,43.9,33.3,42,31.5L42,31.5z M39.7,29.3c-2.4-2.2-2.5-3.2-2.3-3.6c0.2-0.5,0.8-0.5,0.9-0.5c0.1,0,0.1,0,0.1,0.1
					c0,0.1,0.1,0.4,0.6,0.5c0.5,0.2,0.9,0.3,1.2,0.3v3.5C40,29.5,39.9,29.4,39.7,29.3z M42.6,43.3c0,0.1-0.1,0.3-0.8,0.5
					c0-0.4,0-0.8,0-1.2C42.3,42.8,42.6,43.1,42.6,43.3z M41.7,25.2v1l-0.5-0.1l-0.3-0.1c0-0.2-0.1-0.4-0.2-0.6v-0.7L41.7,25.2
					L41.7,25.2z M39.5,39.9c0-0.3,0.3-0.7,1.1-1.3c0,0.7,0.1,1.4,0.1,2.2C39.9,40.5,39.5,40.2,39.5,39.9z M41.1,42.2
					c0.1,0,0.2,0.1,0.3,0.1c0,0.9,0,1.9,0,2.9c-0.1,0-0.2-0.1-0.2-0.2C41.2,44.1,41.1,43.1,41.1,42.2L41.1,42.2z M41.2,47.1
					c0-0.3,0-0.7,0-1c0.1,0,0.2,0.1,0.2,0.1c0,0.3,0,0.6,0,0.9C41.4,47.2,41.3,47.2,41.2,47.1L41.2,47.1z M41.4,41.2
					c-0.1,0-0.2-0.1-0.3-0.1c-0.2-6.9-0.8-7.9-1.2-8.2l0.2-0.4l0.6,0.4v-1c0.1,0.1,0.2,0.1,0.2,0.2c0.2,0.2,0.5,0.4,0.7,0.6
					C41.4,34.6,41.4,37.4,41.4,41.2L41.4,41.2z M41.6,31c-0.3-0.3-0.7-0.6-1-1v-3.9c0,0,0.1,0,0.1-0.1l0.3,0.1l0.4,0.6l0.1,0l0-0.4
					l0.2,0V27l0.4,0.1c0.1-0.2,0.4-0.6,0.7-0.8l0.2,1C42.3,27.9,41.9,28.6,41.6,31L41.6,31z M43.2,35.3c-0.1,0.5-0.5,0.9-1.4,1.3
					c0-1.4,0-2.6,0.1-3.6C42.8,33.9,43.3,34.6,43.2,35.3L43.2,35.3z"/>
				<path class="st2" d="M39.1,25.3c0,0-0.1,0-0.1,0c-0.1,0-0.1,0-0.2,0.1c0,0.1,0,0.2,0.1,0.3c0,0,0.1,0,0.1,0c0.1,0,0.1,0,0.2-0.1
					C39.3,25.5,39.2,25.4,39.1,25.3L39.1,25.3z"/>
				<path class="st2" d="M39.5,24.6c0,0-0.1-0.1-0.2-0.1c0,0-0.1,0-0.1,0c0,0,0,0.1,0,0.1c0,0.1,0,0.1,0.1,0.2c0,0,0.1,0.1,0.2,0.1
					c0,0,0.1,0,0.1,0c0,0,0-0.1,0-0.1C39.6,24.8,39.6,24.7,39.5,24.6L39.5,24.6z"/>
			</g>
			<path class="st3" d="M30.3,41.7v-3.3h-5.8v5.8h1.8v3.3h5.8v-5.8L30.3,41.7L30.3,41.7z M28.6,39.2h1v2.4h-1V39.2z M29.6,44.3V45
				h-0.7v-0.7H29.6z M25.4,39.2h2.4v1h-2.4V39.2z M26.3,43.5h-1v-2.4h1V43.5z M27,41h0.7v0.7H27C27,41.7,27,41,27,41z M27.1,42.6
				h2.4v1h-2.4V42.6z M28.1,46.7h-1v-2.4h1V46.7z M31.2,46.7h-2.4v-1h2.4V46.7z M31.3,45h-1v-2.4h1V45z"/>
		</g>
	</g>
</g>
</svg>
